<svg width="410" height="410" viewBox="0 0 410 410" fill="none" xmlns="http://www.w3.org/2000/svg">
<rect width="410" height="410" rx="84" fill="#0B0B0C"/>
<path d="M204.959 248.269C183.952 248.269 166.428 233.424 162.269 213.7H92.3833C97.3231 271.055 145.525 316.057 204.231 316.057C262.937 316.057 311.191 271.055 316.079 213.7H247.649C243.489 233.476 225.966 248.269 204.959 248.269Z" fill="white"/>
<path d="M229.918 313.15C276.508 302.25 311.919 262.439 316.078 213.7H288.519C285.764 257.923 262.521 295.398 229.918 313.15Z" fill="#DFDFDF"/>
<path d="M230.698 204.722C230.646 204.722 230.646 204.722 230.698 204.722C230.646 201.555 230.074 198.545 229.034 195.742C225.394 185.984 215.983 179.081 204.959 179.081C193.936 179.081 184.524 186.036 180.884 195.742C179.844 198.545 179.272 201.555 179.272 204.722H179.324C179.324 207.888 179.896 210.898 180.936 213.701C184.576 223.459 193.988 230.363 205.011 230.363C216.035 230.363 225.446 223.407 229.086 213.701C230.126 210.95 230.698 207.888 230.698 204.722Z" fill="white"/>
<path d="M205.011 161.224C226.018 161.224 243.541 176.069 247.701 195.793H317.587C312.647 138.386 264.445 93.3845 205.687 93.3845C146.929 93.3845 98.7787 138.386 93.8389 195.741H162.32C166.48 176.017 184.004 161.224 205.011 161.224Z" fill="#FF1C1C"/>
<path d="M288.519 195.741H317.534C313.27 146.172 276.664 105.79 228.878 95.7722C262.052 113.264 285.712 151.103 288.519 195.741Z" fill="#DF1818"/>
<path d="M205.687 93.3848C264.445 93.3848 312.647 138.386 317.535 195.741H247.649C243.49 176.018 225.966 161.173 204.959 161.173C183.952 161.173 166.428 176.018 162.269 195.741H93.8392C98.779 138.386 146.981 93.3848 205.687 93.3848ZM229.034 195.741C230.074 198.544 230.646 201.555 230.646 204.721H230.698C230.698 207.887 230.126 210.898 229.086 213.701C225.446 223.459 216.035 230.362 205.011 230.362C193.987 230.362 184.576 223.407 180.936 213.701C179.896 210.898 179.324 207.887 179.324 204.721H179.272C179.272 201.555 179.844 198.544 180.884 195.741C184.524 185.983 193.935 179.08 204.959 179.08C215.983 179.08 225.394 186.035 229.034 195.741ZM204.231 316.109C145.473 316.109 97.271 271.107 92.3832 213.752H162.269C166.428 233.476 183.952 248.321 204.959 248.321C225.966 248.321 243.49 233.476 247.649 213.752H316.131C311.191 271.055 262.989 316.109 204.231 316.109ZM204.959 72C131.538 72 72 131.431 72 204.721C72 278.011 131.538 337.442 204.959 337.442C278.38 337.442 337.97 278.063 337.97 204.721C337.97 131.379 278.432 72 204.959 72Z" fill="#0B0B0C"/>
</svg>
